Coordinates
version=1
nRows=7
nColumns=63
inDegrees=yes

Units are S.I. units (second, meters, Newtons, ...)
If the header above contains a line with 'inDegrees', this indicates whether rotational values are in degrees (yes) or radians (no).

endheader
time	pelvis_tilt	pelvis_list	pelvis_rotation	pelvis_tx	pelvis_ty	pelvis_tz	hip_flexion_r	hip_adduction_r	hip_rotation_r	knee_angle_r	knee_angle_r_beta	ankle_angle_r	subtalar_angle_r	mtp_angle_r	hip_flexion_l	hip_adduction_l	hip_rotation_l	knee_angle_l	knee_angle_l_beta	ankle_angle_l	subtalar_angle_l	mtp_angle_l	L5_S1_Flex_Ext	L5_S1_Lat_Bending	L5_S1_axial_rotation	L4_L5_Flex_Ext	L4_L5_Lat_Bending	L4_L5_axial_rotation	L3_L4_Flex_Ext	L3_L4_Lat_Bending	L3_L4_axial_rotation	L2_L3_Flex_Ext	L2_L3_Lat_Bending	L2_L3_axial_rotation	L1_L2_Flex_Ext	L1_L2_Lat_Bending	L1_L2_axial_rotation	L1_T12_Flex_Ext	L1_T12_Lat_Bending	L1_T12_axial_rotation	Abs_r3	Abs_r2	Abs_r1	Abs_t1	Abs_t2	neck_flexion	neck_bending	neck_rotation	arm_flex_r	arm_add_r	arm_rot_r	elbow_flex_r	pro_sup_r	wrist_flex_r	wrist_dev_r	arm_flex_l	arm_add_l	arm_rot_l	elbow_flex_l	pro_sup_l	wrist_flex_l	wrist_dev_l
      6.00000000	      5.66867869	      6.90449824	     88.10068802	      0.26024494	      0.72897652	      0.57007540	     -6.09463725	      5.20916014	     10.30702072	      8.31434726	      0.14511273	     37.21239629	    -11.45541349	      0.00000000	     -2.90842178	     -7.27840404	     -8.89489499	     22.49818598	      0.39266742	     45.70860077	      0.90421980	      0.00000000	     -0.06620540	      0.83094633	      0.05501030	     -0.12295005	      1.10515861	      0.05844845	     -0.10876885	      2.02036290	      0.05844845	     -0.07566615	      2.02036290	      0.04813402	     -0.06147834	      1.69446575	      0.04469587	     -0.03782977	      1.28713586	      0.04125773	     -0.47289856	      9.39983103	      0.30595081	      0.00000000	      0.00000000	     13.64334140	      3.38852362	      9.91668287	     11.60719225	    -36.36810774	    -27.06495479	     34.13594989	     47.82977876	    -16.61634525	      0.24714580	      3.56767415	    -29.02541221	    -47.02538372	     37.71212079	     82.19980844	    -17.44804955	      2.55172926
      6.01694915	      6.50755288	      6.89144222	     88.19193242	      0.25966980	      0.72440932	      0.56783183	     -6.38239957	      6.09729794	     10.99456692	      8.09945444	      0.14136215	     38.04858954	    -11.96776323	      0.00000000	     -2.50995322	     -8.23793492	     -8.45438269	     23.72424114	      0.41406612	     47.41349832	      0.69717826	      0.00000000	     -0.11554636	      0.95591844	      0.20704465	     -0.21458115	      1.27137153	      0.21998494	     -0.18983112	      2.32422010	      0.21998494	     -0.13205794	      2.32422010	      0.18116407	     -0.10729635	      1.94930889	      0.16822378	     -0.06602319	      1.48071767	      0.15528349	     -0.82533613	     10.81354061	      1.15152023	      0.00000000	      0.00000000	     15.81518829	      2.35644595	     10.25323850	     10.84698818	    -40.39826449	    -16.40147440	     24.59002581	     52.11808933	    -19.37761391	      1.67362929	      2.13029635	    -31.78660448	    -38.69790917	     28.93581581	     78.11251787	    -17.96317915	     -1.20547339
      6.03389831	      7.31453847	      7.24535881	     88.44390055	      0.25965665	      0.72062358	      0.56676277	     -6.94418616	      7.00694624	     11.32684018	      7.92597038	      0.13833428	     38.74909214	    -12.41433882	      0.00000000	     -2.36500202	     -9.29226215	     -8.18903649	     24.96718396	      0.43575957	     49.10652615	      1.08050489	      0.00000000	     -0.21059999	      1.05192099	      0.18496740	     -0.39110525	      1.39905491	      0.19652786	     -0.34599473	      2.55764069	      0.19652786	     -0.24069473	      2.55764069	      0.16184647	     -0.19556316	      2.14507728	      0.15028601	     -0.12033684	      1.62942561	      0.13872555	     -1.50429470	     11.89954059	      1.02873318	      0.00000000	      0.00000000	     17.39223587	      1.59015222	     10.34432677	     17.22437992	    -44.24097160	     59.69655426	      8.60548128	      2.94638692	    -14.38386885	     -2.03665718	      0.63155429	    -35.02078695	    -21.20825635	     21.09647387	     65.70178028	    -19.56902129	     -5.39816994
      6.05084746	      8.80153774	      7.55723352	     88.52356138	      0.25859464	      0.71743016	      0.56575444	     -7.57182763	      8.51761876	     11.64219403	      7.54442898	      0.13167513	     38.82778132	    -13.02320852	      0.00000000	     -2.20545068	    -11.02399170	     -8.09357105	     26.20829339	      0.45742101	     50.91639784	      1.77871221	      0.00000000	     -0.29851340	      1.25648416	      0.29961366	     -0.55436923	      1.67112394	      0.31833951	     -0.49042766	      3.05501560	      0.31833951	     -0.34117096	      3.05501560	      0.26216195	     -0.27719954	      2.56222251	      0.24343610	     -0.17057056	      1.94629397	      0.22471024	     -2.13225136	     14.21360017	      1.66636127	      0.00000000	      0.00000000	     19.18044508	      0.00678693	     10.02550326	     13.13310958	    -44.23641060	     64.98251798	      8.85883797	      3.17176690	    -13.55054260	      0.36411566	      6.58430452	    -37.00483027	     67.96398901	      3.67515269	      2.90610875	    -14.02215267	     -8.95256331
      6.06779661	     10.16544059	      7.96168587	     88.80471792	      0.25839935	      0.71447838	      0.56466360	     -8.32520426	      9.97876664	     11.50865542	      7.06153522	      0.12324704	     38.96047090	    -13.33451571	      0.00000000	     -2.12660895	    -12.81790462	     -8.29159652	     27.35115535	      0.47736772	     52.68893786	      3.08499142	      0.00000000	     -0.39364747	      1.38808417	      0.24098023	     -0.73104271	      1.84615195	      0.25604150	     -0.64672342	      3.37498786	      0.25604150	     -0.44989969	      3.37498786	      0.21085770	     -0.36554104	      2.83058124	      0.19579644	     -0.22493016	      2.15014238	      0.18073518	     -2.81178449	     15.70228577	      1.34025976	      0.00000000	      0.00000000	     20.87459653	     -0.70086781	      8.44225116	     10.16681687	    -43.00008362	     71.91665753	      9.50005554	      3.66910286	    -11.92470196	      1.83648361	      3.91741099	    -36.35728810	     70.05791579	      4.74164607	      4.54696312	    -15.09166748	     -6.65889018
      6.08474576	     11.40453206	      8.50742331	     89.05471326	      0.25858113	      0.71244939	      0.56394997	     -9.22134054	     11.33391899	     11.44502937	      6.52389248	      0.11386340	     38.84518310	    -13.85939943	      0.00000000	     -2.30674542	    -14.56697112	     -8.89238304	     28.19277820	      0.49205680	     54.17229037	      4.77816065	      0.00000000	     -0.48909426	      1.48246919	      0.18680875	     -0.90829694	      1.97168403	      0.19848430	     -0.80353296	      3.60447560	      0.19848430	     -0.55898583	      3.60447560	      0.16345766	     -0.45417293	      3.02305118	      0.15178211	     -0.27946846	      2.29634478	      0.14010656	     -3.49355137	     16.76998802	      1.03897422	      0.00000000	      0.00000000	     21.92504703	     -1.15253053	      5.97361617	      7.64819480	    -41.25833953	     80.47099908	     10.43377281	      4.48877699	     -9.98765054	      2.54307103	      1.54255981	    -35.60167695	     72.65337373	      5.74321792	      7.35317445	    -15.23395235	     -4.32968310
      6.10169492	     12.41127909	      9.26484510	     88.96092331	      0.25949772	      0.71135451	      0.56354077	    -10.39915844	     12.41139505	     11.84342005	      5.93178806	      0.10352923	     38.47616336	    -14.34873593	      0.00000000	     -2.99354420	    -16.04104025	     -9.92572888	     28.62158803	      0.49954095	     55.41764547	      6.45188127	      0.00000000	     -0.60417759	      1.53168752	      0.21230049	     -1.12201821	      2.03714440	      0.22556927	     -0.99260337	      3.72414503	      0.22556927	     -0.69051457	      3.72414503	      0.18576293	     -0.56103931	      3.12341718	      0.17249415	     -0.34522708	      2.37258396	      0.15922537	     -4.31558013	     17.32675553	      1.18075163	      0.00000000	      0.00000000	     22.20190786	     -1.26724484	      3.04746464	      5.96158476	    -38.99669435	     94.91727557	     11.03284328	      3.94797283	     -7.31616082	      2.12847950	     -0.50927977	    -34.67413752	     77.03509489	      6.65367754	      9.61536238	    -14.43816826	     -2.11642502
